<?xml version="1.0" encoding="utf-8"?>
<!-- Generator: Adobe Illustrator 19.2.1, SVG Export Plug-In . SVG Version: 6.00 Build 0)  -->
<svg version="1.0" id="Layer_1" xmlns="http://www.w3.org/2000/svg" xmlns:xlink="http://www.w3.org/1999/xlink" x="0px" y="0px"
	 viewBox="0 0 100 100" enable-background="new 0 0 100 100" xml:space="preserve">
<g>
	<path fill="#60FA83" d="M95.536,100H4.464C1.999,100,0,98.001,0,95.536V4.464C0,1.999,1.999,0,4.464,0h91.071
		C98.001,0,100,1.999,100,4.464v91.071C100,98.001,98.001,100,95.536,100z"/>
	<path fill="#38C14F" d="M35.461,64.539c0,1.333,1.09,2.423,2.423,2.423h2.423v8.481c0,2.011,1.624,3.635,3.635,3.635
		c2.011,0,3.635-1.624,3.635-3.635v-8.481h4.846v8.481c0,2.011,1.624,3.635,3.635,3.635c2.011,0,3.635-1.624,3.635-3.635v-8.481
		h2.423c1.333,0,2.423-1.09,2.423-2.423V40.307H35.461V64.539z M29.402,40.307c-2.011,0-3.635,1.624-3.635,3.635v16.963
		c0,2.011,1.624,3.635,3.635,3.635s3.635-1.624,3.635-3.635V43.942C33.037,41.931,31.414,40.307,29.402,40.307z M70.598,40.307
		c-2.011,0-3.635,1.624-3.635,3.635v16.963c0,2.011,1.624,3.635,3.635,3.635c2.011,0,3.635-1.624,3.635-3.635V43.942
		C74.232,41.931,72.609,40.307,70.598,40.307z M58.554,26.155l3.15-3.15c0.485-0.485,0.485-1.236,0-1.721
		c-0.485-0.485-1.236-0.485-1.721,0l-3.586,3.586c-1.914-0.969-4.095-1.527-6.397-1.527c-2.326,0-4.507,0.557-6.446,1.527
		l-3.611-3.586c-0.485-0.485-1.236-0.485-1.721,0s-0.485,1.236,0,1.721l3.174,3.174c-3.586,2.641-5.937,6.882-5.937,11.704h29.079
		C64.539,33.062,62.189,28.797,58.554,26.155z M45.154,33.037H42.73v-2.423h2.423V33.037z M57.27,33.037h-2.423v-2.423h2.423V33.037
		z"/>
</g>
</svg>
